<svg xmlns="http://www.w3.org/2000/svg" xmlns:xlink="http://www.w3.org/1999/xlink" width="50" height="50"><defs><path id="a" d="M0 0h50v50H0z"/><mask id="b" maskContentUnits="userSpaceOnUse" maskUnits="userSpaceOnUse"><path d="M0 0h50v50H0z"/><use fill="#fff" xlink:href="#a"/></mask></defs><use fill="none" xlink:href="#a"/><g mask="url(#b)"><path fill="#EA6244" fill-rule="evenodd" d="M0 25C0 11.19372559 11.19372559 0 25 0s25 11.19372559 25 25-11.19372559 25-25 25S0 38.80627441 0 25zM25 4.16662598c11.48742676 0 20.83325195 9.3458252 20.83325195 20.83337402 0 11.48742676-9.3458252 20.83325195-20.83325195 20.83325195-11.48754883 0-20.83337402-9.3458252-20.83337402-20.83325195 0-11.48754883 9.3458252-20.83337402 20.83337402-20.83337402zm12.5 10.88757324h-8.33337402v1.82287598H37.5v-1.82287598zm-18.63342285.0270996c6.6541748.0979004 6.78125 6.61669923 3.30627441 8.39172364 4.20629883 1.53125 4.3458252 9.79577637-3.90002441 9.79577637h-7.85620117v-18.1875h8.44995117zm-4.54370117 3.61865235h3.7145996c3.9124756 0 3.42919922 3.8729248.3791504 3.8729248h-4.09375v-3.8729248zm21.07910156 10.93969727h3.84729004c-1.60668946 4.70251465-12.3930664 6.17565918-12.3930664-3.2520752 0-9.54797363 11.47497558-9.11877441 12.61047362-1.81677246.09375.61462402.1291504 1.44384766.11450196 2.60217285h-9.1875c-.2166748 3.57287598 3.66674804 4.02490235 5.00830078 2.4666748zm.54174805-4.86254883h-5.4666748c.55004882-3.77087402 5.22705077-3.51464844 5.4666748 0zM14.32287598 29.6583252h3.80004882c3.71240235-.0020752 3.48535157-4.05627442.0625-4.05627442h-3.86254882v4.05627442z"/></g></svg>