<svg xmlns="http://www.w3.org/2000/svg" xmlns:xlink="http://www.w3.org/1999/xlink" width="50" height="50"><defs><path id="a" d="M0 0h50v50H0z"/><mask id="b" maskContentUnits="userSpaceOnUse" maskUnits="userSpaceOnUse"><path d="M0 0h50v50H0z"/><use fill="#fff" xlink:href="#a"/></mask></defs><use fill="none" xlink:href="#a"/><g mask="url(#b)"><path fill="#EA6244" fill-rule="evenodd" d="M25 0C11.19372559 0 0 11.19372559 0 25s11.19372559 25 25 25 25-11.19372559 25-25S38.80627441 0 25 0zm0 4.16662598c11.48742676 0 20.83325195 9.3458252 20.83325195 20.83337402 0 11.48742676-9.3458252 20.83325195-20.83325195 20.83325195-11.48754883 0-20.83337402-9.3458252-20.83337402-20.83325195 0-11.48754883 9.3458252-20.83337402 20.83337402-20.83337402zM25 12.5c-3.39587402 0-3.81872559.01452637-5.1541748.07702637-4.54162598.20837402-7.0625 2.72717285-7.27087403 7.26879883C12.51452637 21.1812744 12.5 21.60620117 12.5 25c0 3.39587402.01452637 3.82080078.07495117 5.1541748.20837403 4.53955079 2.72924805 7.0625 7.27087403 7.27087403C21.1812744 37.48547363 21.60412598 37.5 25 37.5s3.82080078-.01452637 5.15625-.07495117c4.5333252-.20837403 7.0645752-2.72717285 7.26879883-7.27087403C37.48547363 28.82080078 37.5 28.39587402 37.5 25c0-3.39379883-.01452637-3.81872559-.07495117-5.1541748-.20422363-4.5354004-2.72717285-7.0625-7.26879883-7.26879883C28.82080078 12.51452637 28.39587402 12.5 25 12.5zm5.05212402 2.32702637c-1.31884765-.0604248-1.7145996-.07287598-5.05212402-.07287598-3.33752441 0-3.73339844.01037598-5.05004883.07080078-3.39160156.1541748-4.9708252 1.76049805-5.125 5.125C14.76660157 21.26660157 14.7520752 21.6624756 14.7520752 25c0 3.33752441.01452636 3.73327637.07287597 5.04992676.15625 3.35632324 1.72924805 4.96875 5.125 5.125 1.3166504.0604248 1.71252442.07299804 5.05004883.07299804 3.3395996 0 3.73327637-.01464843 5.05212402-.07299804 3.39160157-.15405274 4.96875-1.76452637 5.125-5.125.05822754-1.3166504.07080078-1.71240235.07080078-5.04992676s-.01257324-3.73132324-.07080078-5.05004883c-.15625-3.36242676-1.73547363-4.96875-5.125-5.1229248zm.11865235 3.50219726c0-.82922363.67297363-1.5 1.5-1.5.83129883 0 1.5020752.67077637 1.5020752 1.5 0 .82922364-.67285157 1.5-1.5020752 1.5-.82922364 0-1.5-.67297363-1.5-1.5zM18.58129883 25c0-3.54577637 2.875-6.41870117 6.41870117-6.41870117 3.54382324 0 6.41882324 2.875 6.41882324 6.41870117 0 3.54589844-2.875 6.41882324-6.41882324 6.41882324-3.54370117 0-6.41870117-2.8729248-6.41870117-6.41882324zM25 29.16674805c-2.30200195 0-4.16662598-1.86462403-4.16662598-4.16674805 0-2.29992676 1.86462403-4.16662598 4.16662598-4.16662598 2.30004883 0 4.16882324 1.86462403 4.16882324 4.16662598 0 2.30212402-1.86877441 4.16674805-4.16882324 4.16674805z"/></g></svg>