<svg xmlns="http://www.w3.org/2000/svg" xmlns:xlink="http://www.w3.org/1999/xlink" width="50" height="50"><defs><path id="a" d="M0 0h50v50H0z"/><mask id="b" maskContentUnits="userSpaceOnUse" maskUnits="userSpaceOnUse"><path d="M0 0h50v50H0z"/><use fill="#fff" xlink:href="#a"/></mask></defs><use fill="none" xlink:href="#a"/><g mask="url(#b)"><path fill="#EA6244" fill-rule="evenodd" d="M25 0C11.19372559 0 0 11.19372559 0 25s11.19372559 25 25 25 25-11.19372559 25-25S38.80627441 0 25 0zm0 4.16662598c11.48742676 0 20.83325195 9.3458252 20.83325195 20.83337402 0 11.48742676-9.3458252 20.83325195-20.83325195 20.83325195-11.48754883 0-20.83337402-9.3458252-20.83337402-20.83325195 0-11.48754883 9.3458252-20.83337402 20.83337402-20.83337402zm-8.33337402 12.5c0-1.1604004.93127441-2.09997559 2.08337402-2.09997559 1.1520996 0 2.08325195.9416504 2.08325195 2.09997559 0 1.16040039-.93115234 2.09997558-2.08325195 2.09997558-1.1520996 0-2.08337402-.9375-2.08337402-2.09997558zm6.25 16.66674804v-12.5h4.16662597v2.27709961c1.8166504-3.36669922 8.33337403-3.61669922 8.33337403 3.22497559v6.9979248h-4.16247559V27.3729248c0-3.91870117-4.17089844-3.5875244-4.17089844 0v5.96044922h-4.16662597zm-6.25-12.5v12.5h4.16662597v-12.5h-4.16662597z"/></g></svg>