<svg xmlns="http://www.w3.org/2000/svg" xmlns:xlink="http://www.w3.org/1999/xlink" width="50" height="50"><defs><path id="a" d="M0 0h50v50H0z"/><mask id="b" maskContentUnits="userSpaceOnUse" maskUnits="userSpaceOnUse"><path d="M0 0h50v50H0z"/><use fill="#fff" xlink:href="#a"/></mask></defs><use fill="none" xlink:href="#a"/><g mask="url(#b)"><path fill="#EA6244" fill-rule="evenodd" d="M0 25.04162598c0-13.80627442 11.19372559-25 25-25s25 11.19372558 25 25c0 13.80627441-11.19372559 25-25 25s-25-11.19372559-25-25zm45.83325195.00012207c0-11.48754883-9.3458252-20.83337403-20.83325195-20.83337403-11.48754883 0-20.83337402 9.3458252-20.83337402 20.83337403C4.16662598 36.5291748 13.51245118 45.875 25 45.875c11.48742676 0 20.83325195-9.3458252 20.83325195-20.83325195zm-8.3519287-8.37512207H12.51672362L25 26.1875l12.48132324-9.52087402zM12.5 19.22705078L25 28.87084961l12.5-9.64379883v14.10620117h-25V19.22705078z"/></g></svg>