<svg xmlns="http://www.w3.org/2000/svg" xmlns:xlink="http://www.w3.org/1999/xlink" width="50" height="50"><defs><path id="a" d="M0 0h50v50H0z"/><mask id="b" maskContentUnits="userSpaceOnUse" maskUnits="userSpaceOnUse"><path d="M0 0h50v50H0z"/><use fill="#fff" xlink:href="#a"/></mask></defs><use fill="none" xlink:href="#a"/><g mask="url(#b)"><path fill="#EA6244" fill-rule="evenodd" d="M25 0C11.19372559 0 0 11.19372559 0 25s11.19372559 25 25 25 25-11.19372559 25-25S38.80627441 0 25 0zm0 4.16662598c11.48742676 0 20.83325195 9.3458252 20.83325195 20.83337402 0 11.48742676-9.3458252 20.83325195-20.83325195 20.83325195-11.48754883 0-20.83337402-9.3458252-20.83337402-20.83325195 0-11.48754883 9.3458252-20.83337402 20.83337402-20.83337402zM12.5 34.8770752h7.44580078v-.42089844l-2.625-3.1854248c-.2833252-.28955079-.41662598-.6937256-.36242676-1.0958252v-9.55627442l6.5354004 14.25842286h.75830078l5.61462402-14.25842286v11.36462403c0 .30419922 0 .36254883-.19799805.5604248l-2.01867676 1.96044922v.41870117h9.80419922v-.41870117l-1.95007324-1.91467285c-.17285156-.13122559-.25830078-.3458252-.2208252-.5604248V17.9708252c-.03747558-.21459961.04797364-.42919922.2208252-.5604248L37.5 15.49572753v-.41870117h-6.9104004l-4.92504882 12.28540039L20.0625 15.07702636h-7.2479248v.41870118l2.33544921 2.8125c.22912598.20629883.3458252.51049805.3145752.81677246v11.04992676c.06872559.39794922-.05834961.80627441-.33752441 1.0958252L12.5 34.45617675v.42089844z"/></g></svg>